<?xml version="1.0" encoding="UTF-8"?>
<svg id="Layer_4" data-name="Layer 4" xmlns="http://www.w3.org/2000/svg" viewBox="0 0 907.62 921.67">
  <defs>
    <style>
      .cls-1 {
        fill: #1b4f8c;
      }
    </style>
  </defs>
  <path class="cls-1" d="M662.05,382.72l-163.82,135.6c-22.54,18.65-49.18,25.83-76.24,9.12l-152.7-123.87L.86,185.43c2.12-30.46,26.29-63.42,59.86-63.42l782.5-.06c33.07,0,57.36,32.82,59.1,62.16l-64.01,52.64-176.26,145.98Z"/>
  <path class="cls-1" d="M60.1,799.73c-25.09-4.3-44.61-18.22-52.72-41.31l132.02-117.92,175.62-154.29,85.09,68.79c32.83,22.07,74.43,22.47,107.14.3l84.06-69.05,137.61,119.01,56.7,48.69,114,96.82c-7.47,25.26-29.65,48.65-58.14,48.66l-781.38.29Z"/>
  <polygon class="cls-1" points="178.14 560.31 26.38 694.65 1.63 715.82 0 692.53 .05 230.39 204.33 396.14 287.44 463.77 178.14 560.31"/>
  <polygon class="cls-1" points="795.05 615.55 619.07 463.5 766.12 341.58 902.46 230.17 902.41 706.01 795.05 615.55"/>
</svg>