<?xml version="1.0" encoding="UTF-8"?>
<svg id="Layer_5" data-name="Layer 5" xmlns="http://www.w3.org/2000/svg" viewBox="0 0 987.76 929.75">
  <defs>
    <style>
      .cls-1 {
        fill: #1b4f8c;
      }
    </style>
  </defs>
  <path class="cls-1" d="M480.93,772.23c-50.69-65.78-98.49-131.97-140.7-202.93l-50.84-85.49c-20.06-33.73-36.79-67.72-51.26-104.25-15-37.89-21.69-76.03-19.05-117.46C227.77,125.77,336.26,11.83,473.04.82c106.46-8.56,209.67,50.3,260.23,142.76,34.88,63.78,45.1,136.16,25.78,206.48-20.86,75.93-90.18,186.23-135.08,256.58-36.89,57.81-77.23,111.55-117.75,166-7.52,4.92-18.42,8.49-25.29-.43ZM620.56,279.78c0-70.2-56.91-127.11-127.11-127.11s-127.11,56.91-127.11,127.11,56.91,127.11,127.11,127.11,127.11-56.91,127.11-127.11Z"/>
  <path class="cls-1" d="M810.33,604.75l-142.43-.36,27.14-42.95,28.67-1.24c14.45-.62,28.07.22,42.33.26l34.23.08c27.1.06,45.82,10.07,57.12,34.27l77.19,165.39,50.25,109.22c4.79,10.41,3.4,25.42-1.76,35.69-6.51,12.96-21.79,24.65-38.27,24.64l-903.43-.21c-27.42,0-46.64-28.9-40.06-52.9,5.28-19.24,14.07-34.51,22.46-52.62l105.75-228.32c8.41-18.15,21.56-33.84,43.13-34.2l51.81-.88,41.29-.03,28.08.88,25.56,42.95-141.91.17-42.58,92.88,247.13.22,27.53,39.26-16.73,2.4-.13,146.18,327.78-.25-145.88-146.15,23.24-30.72,28.36,28.61,245.65-.06-61.52-132.2ZM354.97,885.43l.03-147.16-239.85.03-67.62,147.16,307.43-.03ZM777.62,885.59l163.18-.2-49.84-107.77-221.74.14c12.99,15.88,27.28,28.16,41.14,42.24l37.21,37.82,30.05,27.77Z"/>
</svg>