<?xml version="1.0" encoding="UTF-8"?>
<svg id="Layer_7" data-name="Layer 7" xmlns="http://www.w3.org/2000/svg" viewBox="0 0 987.76 929.75">
  <defs>
    <style>
      .cls-1 {
        fill: #1b4f8c;
      }

      .cls-2 {
        fill: #fff;
      }
    </style>
  </defs>
  <path class="cls-1" d="M816.19,920.05H174.91c-73.71-7.08-131.28-66.91-133.83-141.59l-.55-188.42.05-27.15-.21-81.26-.1-16.54.73-312.71c.12-51.77,29.68-97.64,73.26-123.51,17.71-10.51,39.3-19.17,61.08-19.16l637.79.19c64.72.02,132.39,68.58,132.84,130.77l1.51,210.95-.16,18.5-.81,414.67c-.06,32.45-16.32,62.48-36.37,85.54-24.55,28.23-55.73,44.92-93.95,49.73ZM345.29,256.8c0-38.76-31.42-70.17-70.17-70.17s-70.17,31.42-70.17,70.17,31.42,70.17,70.17,70.17,70.17-31.42,70.17-70.17ZM642.33,485.13c11.63,12.61,14.18,27.9,17.12,44.59l.14,205.63,115.71.12.07-200.58-2.16-41.07c-1.18-22.37-7.82-43.89-18.4-63.42-12.12-22.38-29.83-39.82-53.66-49.49-60.9-24.72-139.05-16.47-176.69,42.99l-.31-47.29-113.46-.02v358.83s115.68.01,115.68.01l.08-189.09c2.05-14.17,3.5-27.35,8.53-39.9,10.16-25.33,33.72-38.46,60.41-37.92,17.27.35,34.37,2.99,46.93,16.61ZM334.25,376.52h-118.6v358.99h118.6v-358.99Z"/>
  <path class="cls-2" d="M642.33,485.13c-12.56-13.62-29.66-16.26-46.93-16.61-26.69-.54-50.25,12.6-60.41,37.92-5.04,12.56-6.48,25.73-8.53,39.9l-.08,189.09h-115.67s-.01-358.85-.01-358.85l113.46.02.31,47.29c37.64-59.46,115.79-67.71,176.69-42.99,23.82,9.67,41.54,27.11,53.66,49.49,10.57,19.53,17.22,41.05,18.4,63.42l2.16,41.07-.07,200.58-115.71-.12-.14-205.63c-2.94-16.69-5.49-31.98-17.12-44.59Z"/>
  <rect class="cls-2" x="215.64" y="376.52" width="118.6" height="358.99"/>
  <circle class="cls-2" cx="275.11" cy="256.8" r="70.17"/>
</svg>