<?xml version="1.0" encoding="UTF-8"?>
<svg id="Layer_3" data-name="Layer 3" xmlns="http://www.w3.org/2000/svg" viewBox="0 0 824.07 921.67">
  <defs>
    <style>
      .cls-1 {
        fill: #1b4f8c;
      }
    </style>
  </defs>
  <path class="cls-1" d="M566.13,507.35c12.9,1.59,26.21,5.82,35.46,15.04l112.38,112c8.78,8.75,15.55,17.87,18.84,29.63,6.74,24.14-.16,47.25-16.92,65.31-19.18,20.68-39.48,39.56-63.25,54.96-15.05,9.75-30.49,15.35-48.44,17.4-100.43,11.47-198.01-31.59-279.86-86.98-78.28-52.97-153.44-125.3-211.35-199.92-37.36-48.14-72.1-105.99-92.62-163.21C2.12,300.7-5.13,242.43,3.84,189.26c2.45-14.53,7.04-27.48,14.55-40.15,14.05-23.71,40.31-58.48,60.96-75.14,26.54-21.41,62.04-16.67,85.35,7.21l48.14,49.31,37.19,38.04,26.75,27.38c25.7,29.94,21.04,73.71-7.68,99.51-14.27,12.82-28.54,24.2-44.11,35.24-15.95,11.31-12.52,29.88-5.15,47.02,14.56,33.88,40.79,65.09,66.13,91.99,16.66,17.68,33.25,34.35,51.08,50.85,24.6,22.78,52.52,45.58,82.75,59.86,16.04,7.58,39.66,14.05,49.67-.86l12.47-18.58c7.46-11.11,14.66-21.7,23.82-31.48,15.48-16.55,36.91-25,60.38-22.1Z"/>
</svg>