<?xml version="1.0" encoding="UTF-8"?>
<svg id="Layer_6" data-name="Layer 6" xmlns="http://www.w3.org/2000/svg" viewBox="0 0 987.76 929.75">
  <defs>
    <style>
      .cls-1 {
        fill: #1b4f8c;
      }

      .cls-2 {
        fill: #fff;
      }
    </style>
  </defs>
  <path class="cls-1" d="M892.08,104.23c34.31-.02,71.19,29.24,71.2,67.44l.05,682.25c0,36.15-34.07,70.04-67.66,72.19l-121.07,1.41-163.3.11-140.08.06-116.69.2-120.52-.17-39.05-.1c-27.46-.07-52.1-1.57-80.16.39-43.77,3.06-90.38-27.86-90.37-76.42l.04-679.29c0-35.65,32.4-63.89,64.3-67.1,25.36-2.55,46.95-.54,72.35-.92l.88,62.91c.35,24.87,23.22,45.66,47.54,46.43,17.46.56,33.42,1.08,50.49-.31,24.89-2.01,44.73-25.24,45.34-49.27l1.5-59.87,372.04.04.6,59.33c.26,25.45,20.48,47.55,46.29,49.79,16.84,1.46,32.91.96,50.22.24,24.5-1.02,47.3-21.45,47.69-46.35l.98-62.96,67.41-.04ZM887.87,891.61c21.02-4.01,40.15-19.48,40.17-41.75l.34-524.32-869.04.04.13,522.38c0,25.49,22.14,43.91,46.33,43.65h782.08Z"/>
  <path class="cls-1" d="M255.56,185.18c-15.98,1.42-29.04,1.21-44.16.31-11.32-.67-23.56-13.72-23.59-25.7l-.3-127.92c4.22-19.18,17.89-30.84,37.21-30.33l22.07.58c19.14.5,32.06,16.43,32.01,34.8l-.32,122.97c-.03,11.05-11.46,24.28-22.92,25.3Z"/>
  <path class="cls-1" d="M773.16,186.16l-40.45-.33c-12.07-.1-25.75-11.04-25.76-23.98l-.03-128.66c0-16.96,15.18-31.13,31.44-31.24l24.74-.17c17.95-.12,34.57,14.69,34.58,33.58l.06,120.49c0,14.83-10.85,25.86-24.58,30.31Z"/>
  <path class="cls-2" d="M887.87,891.61H105.79c-24.19.26-46.33-18.16-46.33-43.65l-.13-522.38,869.04-.04-.34,524.32c-.01,22.27-19.14,37.74-40.17,41.75ZM296.8,498.2c3.18-5.63,3.81-13.91-.21-19.35-4.16-5.64-12.77-7.25-19.65-5.46-5.39,1.41-9.19,7.03-12.41,12.96l-40.77,75.08-44.7-81.78c-4.55-8.33-16-7.99-22.52-5.23-7.15,3.03-11.54,13.28-6.95,21.46l56.68,101.05-.18,86.2c-.02,11.09,9.76,17.91,19.51,17.2,9.42-.68,15.6-8.61,15.63-19.22l.21-85.04,55.37-97.87ZM425.87,595.45l52.61-92.69c5.3-9.33,8.01-18.07-.64-25.98-4.93-4.52-19.51-7.26-24.36,1.58l-45.51,82.93-44.63-81.64c-4.57-8.36-15.94-7.88-22.28-5.08-6.35,2.81-12.19,12.02-7.74,20.02l57.16,102.8.1,87.5c.01,9.54,9.66,15.59,17.52,15.37,7.29-.21,17.14-5.96,17.21-15.85l.56-88.95ZM609.7,596.55l57.46-101.96c4.83-8.58-2.02-18.17-8.99-20.57-6.15-2.12-16.71-2.04-20.93,5.67l-44.78,81.68-41.89-77.5c-4.43-8.19-11.46-13.01-21.31-10.56-6.16,1.53-16.78,11.02-11.98,19.68l57.71,104.08.23,87.42c.03,9.75,9.56,15.81,17.18,15.7,7.1-.11,16.83-4.94,16.88-14.04l.41-89.59ZM791.8,617.06l.85-21.44,56.92-101.15c4.7-8.35-2.24-17.73-8.94-20.38-7.09-2.81-17.48-1.59-21.75,6.3l-44.03,81.27-43.95-81.25c-4.25-7.85-14.68-9.08-21.74-6.32-6.63,2.6-13.68,12.08-8.98,20.49l57.25,102.41-.1,87.98c0,7.76,8.39,14.4,13.85,15.12,7.7,1.02,17.3-1.24,18.93-10.01,1.44-7.71,2-17.53,1.96-25.53l-.26-47.49Z"/>
  <path d="M425.87,595.45l-.56,88.95c-.06,9.88-9.92,15.63-17.21,15.85-7.86.23-17.51-5.82-17.52-15.37l-.1-87.5-57.16-102.8c-4.45-8,1.4-17.21,7.74-20.02,6.34-2.8,17.71-3.28,22.28,5.08l44.63,81.64,45.51-82.93c4.85-8.84,19.42-6.1,24.36-1.58,8.65,7.91,5.94,16.65.64,25.98l-52.61,92.69Z"/>
  <path d="M296.8,498.2l-55.37,97.87-.21,85.04c-.03,10.61-6.21,18.53-15.63,19.22-9.75.71-19.53-6.11-19.51-17.2l.18-86.2-56.68-101.05c-4.59-8.18-.2-18.43,6.95-21.46,6.52-2.76,17.97-3.1,22.52,5.23l44.7,81.78,40.77-75.08c3.22-5.93,7.02-11.56,12.41-12.96,6.87-1.79,15.49-.18,19.65,5.46,4.02,5.45,3.39,13.73.21,19.35Z"/>
  <path d="M609.7,596.55l-.41,89.59c-.04,9.09-9.77,13.93-16.88,14.04-7.62.12-17.15-5.95-17.18-15.7l-.23-87.42-57.71-104.08c-4.81-8.67,5.81-18.15,11.98-19.68,9.86-2.45,16.88,2.37,21.31,10.56l41.89,77.5,44.78-81.68c4.23-7.71,14.78-7.79,20.93-5.67,6.96,2.4,13.82,12,8.99,20.57l-57.46,101.96Z"/>
  <path d="M791.8,617.06l.26,47.49c.04,8-.52,17.83-1.96,25.53-1.64,8.77-11.24,11.02-18.93,10.01-5.46-.72-13.86-7.37-13.85-15.12l.1-87.98-57.25-102.41c-4.7-8.41,2.35-17.89,8.98-20.49,7.06-2.76,17.5-1.53,21.74,6.32l43.95,81.25,44.03-81.27c4.27-7.88,14.65-9.1,21.75-6.3,6.71,2.65,13.64,12.03,8.94,20.38l-56.92,101.15-.85,21.44Z"/>
</svg>